<svg xmlns="http://www.w3.org/2000/svg" width="210.56" height="35" viewBox="0 0 210.56 35"><rect class="svg__rect" x="0" y="0" width="115.31" height="35" fill="#EE4041"/><rect class="svg__rect" x="113.31" y="0" width="97.25" height="35" fill="#C1282D"/><path class="svg__text" d="M15.69 22L14.22 22L14.22 13.47L16.14 13.47L18.60 20.01L21.06 13.47L22.97 13.47L22.97 22L21.49 22L21.49 19.19L21.64 15.43L19.12 22L18.06 22L15.55 15.43L15.69 19.19L15.69 22ZM28.49 22L26.95 22L30.17 13.47L31.50 13.47L34.73 22L33.18 22L32.49 20.01L29.18 20.01L28.49 22ZM30.83 15.28L29.60 18.82L32.07 18.82L30.83 15.28ZM41.14 22L38.69 22L38.69 13.47L41.21 13.47Q42.34 13.47 43.21 13.97Q44.09 14.48 44.57 15.40Q45.05 16.33 45.05 17.52L45.05 17.52L45.05 17.95Q45.05 19.16 44.57 20.08Q44.08 21.00 43.19 21.50Q42.30 22 41.14 22L41.14 22ZM40.17 14.66L40.17 20.82L41.14 20.82Q42.30 20.82 42.93 20.09Q43.55 19.36 43.56 17.99L43.56 17.99L43.56 17.52Q43.56 16.13 42.96 15.40Q42.35 14.66 41.21 14.66L41.21 14.66L40.17 14.66ZM55.09 22L49.51 22L49.51 13.47L55.05 13.47L55.05 14.66L51.00 14.66L51.00 17.02L54.50 17.02L54.50 18.19L51.00 18.19L51.00 20.82L55.09 20.82L55.09 22ZM66.65 22L64.68 13.47L66.15 13.47L67.47 19.88L69.10 13.47L70.34 13.47L71.96 19.89L73.27 13.47L74.74 13.47L72.77 22L71.35 22L69.73 15.77L68.07 22L66.65 22ZM80.38 22L78.90 22L78.90 13.47L80.38 13.47L80.38 22ZM86.87 14.66L84.23 14.66L84.23 13.47L91.00 13.47L91.00 14.66L88.34 14.66L88.34 22L86.87 22L86.87 14.66ZM96.24 22L94.75 22L94.75 13.47L96.24 13.47L96.24 17.02L100.05 17.02L100.05 13.47L101.53 13.47L101.53 22L100.05 22L100.05 18.21L96.24 18.21L96.24 22Z" fill="#FFFFFF"/><path class="svg__text" d="M131.47 22L127.50 22L127.50 13.60L131.47 13.60Q132.85 13.60 133.92 14.12Q134.99 14.63 135.58 15.58Q136.16 16.53 136.16 17.80L136.16 17.80Q136.16 19.07 135.58 20.02Q134.99 20.97 133.92 21.48Q132.85 22 131.47 22L131.47 22ZM129.88 15.50L129.88 20.10L131.38 20.10Q132.45 20.10 133.11 19.49Q133.76 18.88 133.76 17.80L133.76 17.80Q133.76 16.72 133.11 16.11Q132.45 15.50 131.38 15.50L131.38 15.50L129.88 15.50ZM139.81 20.93L139.81 20.93L141.11 19.40Q141.78 20.27 142.55 20.27L142.55 20.27Q142.56 20.27 142.56 20.27L142.56 20.27Q143.08 20.27 143.35 19.96Q143.62 19.65 143.62 19.05L143.62 19.05L143.62 15.44L140.72 15.44L140.72 13.60L145.97 13.60L145.97 18.91Q145.97 20.54 145.15 21.36Q144.33 22.17 142.73 22.17L142.73 22.17Q141.81 22.17 141.05 21.85Q140.29 21.53 139.81 20.93ZM152.48 22L150.05 22L153.76 13.60L156.10 13.60L159.82 22L157.35 22L156.69 20.37L153.14 20.37L152.48 22ZM154.91 15.93L153.83 18.61L155.99 18.61L154.91 15.93ZM166.30 22L163.97 22L163.97 13.60L165.93 13.60L169.64 18.07L169.64 13.60L171.96 13.60L171.96 22L170.01 22L166.30 17.52L166.30 22ZM176.70 17.80L176.70 17.80Q176.70 16.54 177.30 15.54Q177.89 14.55 178.96 13.99Q180.03 13.43 181.37 13.43L181.37 13.43Q182.55 13.43 183.49 13.83Q184.43 14.22 185.05 14.97L185.05 14.97L183.54 16.33Q182.69 15.40 181.52 15.40L181.52 15.40Q181.50 15.40 181.50 15.40L181.50 15.40Q180.42 15.40 179.76 16.06Q179.10 16.71 179.10 17.80L179.10 17.80Q179.10 18.50 179.40 19.04Q179.70 19.59 180.24 19.89Q180.78 20.20 181.47 20.20L181.47 20.20Q182.16 20.20 182.76 19.93L182.76 19.93L182.76 17.62L184.86 17.62L184.86 21.10Q184.13 21.61 183.20 21.89Q182.27 22.17 181.33 22.17L181.33 22.17Q180.01 22.17 178.95 21.61Q177.89 21.05 177.30 20.05Q176.70 19.06 176.70 17.80ZM189.42 17.80L189.42 17.80Q189.42 16.55 190.02 15.55Q190.63 14.56 191.69 14.00Q192.75 13.43 194.08 13.43L194.08 13.43Q195.41 13.43 196.48 14.00Q197.54 14.56 198.15 15.55Q198.75 16.55 198.75 17.80L198.75 17.80Q198.75 19.05 198.15 20.04Q197.54 21.04 196.48 21.60Q195.42 22.17 194.08 22.17L194.08 22.17Q192.75 22.17 191.69 21.60Q190.63 21.04 190.02 20.04Q189.42 19.05 189.42 17.80ZM191.82 17.80L191.82 17.80Q191.82 18.51 192.12 19.05Q192.42 19.60 192.94 19.90Q193.45 20.20 194.08 20.20L194.08 20.20Q194.72 20.20 195.24 19.90Q195.75 19.60 196.05 19.05Q196.35 18.51 196.35 17.80L196.35 17.80Q196.35 17.09 196.05 16.54Q195.75 16 195.24 15.70Q194.72 15.40 194.08 15.40L194.08 15.40Q193.45 15.40 192.93 15.70Q192.42 16 192.12 16.54Q191.82 17.09 191.82 17.80Z" fill="#FFFFFF" x="126.31"/></svg>